<?xml version="1.0" encoding="utf-8"?>
<!-- Generator: Adobe Illustrator 25.0.0, SVG Export Plug-In . SVG Version: 6.00 Build 0)  -->
<svg version="1.1" id="Layer_1" xmlns="http://www.w3.org/2000/svg" xmlns:xlink="http://www.w3.org/1999/xlink" x="0px" y="0px"
	 viewBox="0 0 512 512" style="enable-background:new 0 0 512 512;" xml:space="preserve">
<style type="text/css">
	.st0{fill:#D33D3D;}
	.st1{fill:#EFAC52;}
	.st2{fill:#E95353;}
	.st3{fill:#7DC44E;}
	.st4{fill:#FCAF29;}
	.st5{opacity:0.15;fill:#202020;enable-background:new    ;}
	.st6{opacity:0.15;}
	.st7{fill:#202020;}
	.st8{fill:#8C5549;}
</style>
<g id="pattie_lg">
	<path class="st0" d="M170.2,358.7H49.9c-20,0-36.2,16.8-36.2,37.5v6.3c0,20.7,16.2,37.5,36.2,37.5l198.5,15L170.2,358.7z"/>
	<path class="st0" d="M462.1,358.7H342.5l-74.9,89.7l194.4-8.4c20,0,36.2-16.8,36.2-37.5v-6.3C498.2,375.5,482,358.7,462.1,358.7z"
		/>
</g>
<g id="buns">
	<path id="bun_top" class="st1" d="M435.8,231.2h55.5c10.3-1.9,23.9-11.2,17.4-48.4C487.8,84.1,395.4,9.8,284.6,9.8h-57.1
		c-110.5,0-202.7,73.9-223.9,172c0,0-9.8,49.3,27.2,49.3h378.6"/>
	<path id="bun_bottom" class="st1" d="M512,450v-4.6c0-3-2.5-5.5-5.5-5.5H277.2c-1.6,0-3.2,0.7-4.2,2l-17.4,20.8l-17-20.8
		c-1-1.3-2.6-2-4.3-2H5.5c-3,0-5.5,2.5-5.5,5.5v4.7c0,0.2,0,0.4,0,0.5l0,0.4l0,0.4c0,0.2,0,0.4,0,0.6v11.4c0,0.2,0,0.4,0,0.5l0,0.4
		l0,0.4c0,0.2,0,0.4,0,0.6v13.9c0,12.6,9.9,22.9,22.1,22.9h467.9c12.2,0,22.1-10.3,22.1-22.9v-14c0-0.2,0-0.4,0-0.5l0-0.4l0-0.4
		c0-0.2,0-0.4,0-0.6V452c0-0.2,0-0.4,0-0.5l0-0.4l0-0.4C512,450.5,512,450.3,512,450z"/>
</g>
<g id="sauce">
	<path class="st2" d="M84.2,394.6c4.6,0,8.3-3.7,8.3-8.3v-27.7H75.9v27.7C75.9,390.9,79.6,394.6,84.2,394.6z"/>
	<path class="st2" d="M135.8,394.6c4.6,0,8.3-3.7,8.3-8.3v-27.7h-16.5v27.7C127.6,390.9,131.3,394.6,135.8,394.6z"/>
	<path class="st2" d="M373.4,394.6c4.6,0,8.3-3.7,8.3-8.3v-27.7h-16.5v27.7C365.2,390.9,368.9,394.6,373.4,394.6z"/>
	<path class="st2" d="M416.8,358.7v27.7c0,4.6,3.7,8.3,8.3,8.3c4.6,0,8.3-3.7,8.3-8.3v-27.7H416.8z"/>
</g>
<g id="salad">
	<path class="st3" d="M92.6,294.8c-1.8,0-3.7-0.6-5.2-1.9L52,263.8l-35.3,29.1c-3.5,2.9-8.7,2.4-11.6-1.1c-2.9-3.5-2.4-8.7,1.1-11.6
		l40.6-33.4c3-2.5,7.5-2.5,10.5,0l40.5,33.4c3.5,2.9,4,8.1,1.1,11.6C97.3,293.8,94.9,294.8,92.6,294.8z"/>
	<path class="st3" d="M94.6,296.4c-1.9,0-3.7-0.6-5.3-1.9l-40.6-33.4c-3.5-2.9-4-8.1-1.1-11.6c2.9-3.5,8.1-4,11.6-1.1l35.3,29.1
		l35.3-29.1c3.5-2.9,8.7-2.4,11.6,1.1c2.9,3.5,2.4,8.7-1.1,11.6l-40.6,33.4C98.3,295.8,96.4,296.4,94.6,296.4z"/>
	<path class="st3" d="M175.7,296.5c-1.9,0-3.7-0.6-5.3-1.9l-40.6-33.4c-3.5-2.9-4-8.1-1.1-11.6c2.9-3.5,8.1-4,11.6-1.1l35.3,29.1
		l35.3-29.1c3.5-2.9,8.7-2.4,11.6,1.1c2.9,3.5,2.4,8.7-1.1,11.6l-40.6,33.4C179.4,295.8,177.5,296.5,175.7,296.5z"/>
	<path class="st3" d="M256.8,296.5c-1.9,0-3.7-0.6-5.3-1.9L211,261.1c-3.5-2.9-4-8.1-1.1-11.6c2.9-3.5,8.1-4,11.6-1.1l35.3,29.1
		l35.3-29.1c3.5-2.9,8.7-2.4,11.6,1.1c2.9,3.5,2.4,8.7-1.1,11.6L262,294.6C260.5,295.8,258.7,296.5,256.8,296.5z"/>
	<path class="st3" d="M338.2,296.5c-1.9,0-3.7-0.6-5.3-1.9l-40.6-33.4c-3.5-2.9-4-8.1-1.1-11.6c2.9-3.5,8.1-4,11.6-1.1l35.3,29.1
		l35.3-29.1c3.5-2.9,8.7-2.4,11.6,1.1c2.9,3.5,2.4,8.7-1.1,11.6l-40.6,33.4C342,295.9,340.1,296.5,338.2,296.5z"/>
	<path class="st3" d="M419.4,296.5c-1.9,0-3.7-0.6-5.3-1.9l-40.6-33.4c-3.5-2.9-4-8.1-1.1-11.6c2.9-3.5,8.1-4,11.6-1.1l35.3,29.1
		l35.3-29.1c3.5-2.9,8.7-2.4,11.6,1.1c2.9,3.5,2.4,8.7-1.1,11.6l-40.6,33.4C423.1,295.9,421.2,296.5,419.4,296.5z"/>
	<path class="st3" d="M500.5,296.5c-1.9,0-3.7-0.6-5.2-1.9l-40.5-33.4c-3.5-2.9-4-8.1-1.1-11.6c2.9-3.5,8.1-4,11.6-1.1l40.5,33.4
		c3.5,2.9,4,8.1,1.1,11.6C505.2,295.5,502.9,296.5,500.5,296.5z"/>
</g>
<path id="cheese" class="st4" d="M347.5,356.3c-0.9-1.9-2.8-3.2-5-3.2H170.2c-2.1,0-4.1,1.2-5,3.1c-0.9,1.9-0.6,4.2,0.7,5.8
	l85.4,104.1c1,1.3,2.6,2,4.2,2c0,0,0,0,0,0c1.6,0,3.2-0.7,4.2-2l86.8-104.1C348.1,360.5,348.4,358.3,347.5,356.3z"/>
<path id="shadow_bun_top" class="st5" d="M22.6,181.8C43.8,83.7,136,9.8,246.5,9.8h-19.1c-110.5,0-202.7,73.9-223.9,172
	c0,0-9.8,49.3,27.2,49.3h19.1C12.7,231.2,22.6,181.8,22.6,181.8z"/>
<g class="st6">
	<path id="shadow_but_bottom" class="st7" d="M19.1,479.3v-13.9c0-0.3,0-0.4,0-0.6l0-0.4l0-0.4c0-0.1,0-0.3,0-0.5V452
		c0-0.3,0-0.4,0-0.6l0-0.4l0-0.4c0-0.1,0-0.3,0-0.5v-4.7c0-3,2.5-5.5,5.5-5.5H5.5c-3,0-5.5,2.5-5.5,5.5v4.7c0,0.2,0,0.4,0,0.5l0,0.4
		l0,0.4c0,0.2,0,0.4,0,0.6v11.4c0,0.2,0,0.4,0,0.5l0,0.4l0,0.4c0,0.2,0,0.4,0,0.6v13.9c0,12.6,9.9,22.9,22.1,22.9h19.1
		C29,502.2,19.1,491.9,19.1,479.3z"/>
</g>
<g>
	<path id="shadow_pattie_lg" class="st5" d="M32.8,402.4v-6.3c0-20.7,16.2-37.5,36.2-37.5H49.9c-20,0-36.2,16.8-36.2,37.5v6.3
		c0,20.7,16.2,37.5,36.2,37.5H69C49,439.9,32.8,423.1,32.8,402.4z"/>
	<path id="shadow_cheese" class="st5" d="M185,362.1c-1.4-1.6-1.6-3.9-0.7-5.8c0.9-1.9,2.8-3.1,5-3.1h-19.1c-2.1,0-4.1,1.2-5,3.1
		c-0.9,1.9-0.6,4.2,0.7,5.8l85.4,104.1c1,1.3,2.6,2,4.2,2c0,0,0,0,0,0c1.6,0,3.2-0.7,4.2-2l5.4-6.4L185,362.1z"/>
</g>
<path id="pattie_smal" class="st8" d="M498.2,346.5c0,7.3-5.9,13.2-13.2,13.2H27c-7.3,0-13.2-5.9-13.2-13.2v-20.7
	c0-7.3,5.9-13.2,13.2-13.2h458c7.3,0,13.2,5.9,13.2,13.2L498.2,346.5L498.2,346.5z"/>
<path id="Shadow_pattie_smal" class="st5" d="M32.8,345.4v-20.7c0-7.3,5.9-13.2,13.2-13.2H27c-7.3,0-13.2,5.9-13.2,13.2v20.7
	c0,7.3,5.9,13.2,13.2,13.2h19.1C38.8,358.7,32.8,352.7,32.8,345.4z"/>
</svg>
