<svg id="Capa_1" data-name="Capa 1" xmlns="http://www.w3.org/2000/svg" viewBox="0 0 55 58">
  <defs>
    <style>
      .cls-1,.cls-8{fill:none;stroke-linecap:round;stroke-miterlimit:10;stroke-width:2px;}.cls-1{stroke:#c7cac7;}.cls-2{fill:#556080;}.cls-3{fill:#38454f;}.cls-4{fill:#a4ca83;}.cls-5{fill:#e7eced;}.cls-6{fill:#28384c;}.cls-7{fill:#88c057;}.cls-8{stroke:#e7eced;}.cls-9{fill:#c7cac7;}.cls-10{fill:#949493;}
    </style>
  </defs>
  <line class="cls-1" x1="53" y1="11" x2="53" y2="42"/>
  <path class="cls-2" d="M56.5,58H1.5V55.38A3.38,3.38,0,0,1,4.88,52H53.12a3.38,3.38,0,0,1,3.38,3.38Z"
        transform="translate(-1.5)"/>
  <path class="cls-3" d="M47.58,23H10.42A8.91,8.91,0,0,1,5.5,21.52V52h46V22.08A8.77,8.77,0,0,1,47.58,23Z"
        transform="translate(-1.5)"/>
  <path class="cls-2"
        d="M47.58,23H10.42A8.92,8.92,0,0,1,1.5,14.08V4.25A4.25,4.25,0,0,1,5.75,0h46.5A4.25,4.25,0,0,1,56.5,4.25v9.83A8.92,8.92,0,0,1,47.58,23Z"
        transform="translate(-1.5)"/>
  <rect class="cls-4" x="16" y="4" width="22" height="15"/>
  <circle class="cls-5" cx="46" cy="7" r="4"/>
  <circle class="cls-6" cx="46" cy="17" r="3"/>
  <rect class="cls-6" x="6" y="4" width="6" height="5"/>
  <rect class="cls-6" x="6" y="14" width="6" height="5"/>
  <path class="cls-7" d="M20.5,10a1,1,0,0,1-.71-.29,1,1,0,0,1,0-1.42l2-2a1,1,0,1,1,1.42,1.42l-2,2A1,1,0,0,1,20.5,10Z"
        transform="translate(-1.5)"/>
  <path class="cls-7" d="M20.5,15a1,1,0,0,1-.71-.29,1,1,0,0,1,0-1.42l7-7a1,1,0,1,1,1.42,1.42l-7,7A1,1,0,0,1,20.5,15Z"
        transform="translate(-1.5)"/>
  <line class="cls-8" x1="25" y1="34" x2="25" y2="36"/>
  <line class="cls-8" x1="29" y1="34" x2="29" y2="36"/>
  <path class="cls-9"
        d="M43.5,31H32.81a1.3,1.3,0,0,1-1.31-1.31V28.31A1.31,1.31,0,0,1,32.81,27H43.5a2,2,0,0,1,2,2h0A2,2,0,0,1,43.5,31Z"
        transform="translate(-1.5)"/>
  <path class="cls-10"
        d="M32.81,27H35.5V23h-14v8a3,3,0,0,0,3,3h8a3,3,0,0,0,3-3H32.81a1.3,1.3,0,0,1-1.31-1.31V28.31A1.3,1.3,0,0,1,32.81,27Z"
        transform="translate(-1.5)"/>
</svg>