<svg id="tagline" xmlns="http://www.w3.org/2000/svg" width="192" height="45" viewBox="0 0 192 45">
  <defs>
    <style>
      .vfx.cls-1 {fill: #00a6b4;}
      .audio.cls-2 {fill: #3973b8;}
      .film.cls-3 {fill: #fab900;}
      .games.cls-4 {fill: #e01f1d;}
      .web.cls-5 {fill: #764896;}
    </style>
  </defs>
  <title>tagline</title>
  <g id="vfx_logo">
    <path class="vfx cls-1" d="M16.1,9.2s-2.8,2.2-2.8,5,2.8,5.1,2.8,5.1,2.7-2.3,2.7-5.1-2.7-5-2.7-5m2,5a2,2,0,0,1-1.5,2,1.1,1.1,0,0,0,.5-.9,1.1,1.1,0,0,0-1-1.1A1.1,1.1,0,0,0,15,15.3a1.1,1.1,0,0,0,.5.9,2,2,0,0,1-1.5-2,2,2,0,0,1,2.1-2,2,2,0,0,1,2,2" />
    <path class="vfx cls-1" d="M16,1A15,15,0,1,0,31,16,15,15,0,0,0,16,1m4.2,23.7L19,20.6H13.1l-1.2,4.1H8.2l3.6-11.2c-2.5-2.4-1.4-6-1.4-6a13.4,13.4,0,0,0,2.3,3.4l1.1-3.5h4.5l1.1,3.5a10.1,10.1,0,0,0,2.3-3.4s1.2,3.6-1.4,6l3.6,11.2Z" />
  </g>
  <path id="audio_logo" class="audio cls-2" d="M56,1A15,15,0,1,0,71,16,15,15,0,0,0,56,1m4.7,23.1V20.2H59.1v3.9h-.8V11.8H56.7V24.1h-.9V14.4H54.3v9.7h-.9V17.9H51.8v6.2H48.2L53.8,7h4.4l5.6,17.1Z"/>
  <g id="film_logo">
    <rect class="film cls-3" x="90.8" y="17" width="1.6" height="1.65"/>
    <rect class="film cls-3" x="90.8" y="13.7" width="1.6" height="1.65"/>
    <rect class="film cls-3" x="90.8" y="7" width="1.6" height="1.65"/>
    <rect class="film cls-3" x="90.8" y="10.4" width="1.6" height="1.65"/>
    <rect class="film cls-3" x="90.8" y="20.3" width="1.6" height="1.65"/>
    <path class="film cls-3" d="M96,1a15,15,0,1,0,15,15A15,15,0,0,0,96,1m6.7,9.4H95.8v3.9h5.5v2.8H95.8V25H91V7.2h11.7Z"/>
  </g>
  <g id="games_logo">
    <path class="games cls-4" d="M146.6,5.4a15,15,0,0,0-21.2,21.2A15,15,0,0,0,146.6,5.4m-4.1,2.5-2.4,2.5a6.9,6.9,0,0,0-8.2,0l-2.4-2.5a10.5,10.5,0,0,1,13,0M127.9,9.5l2.5,2.4a6.9,6.9,0,0,0,0,8.2l-2.5,2.4a10.5,10.5,0,0,1,0-13m1.6,14.6,2.4-2.5a6.9,6.9,0,0,0,8.2,0l2.4,2.5a10.5,10.5,0,0,1-13,0m14.6-1.6-2.5-2.4a7.3,7.3,0,0,0,1.3-5.1l-2.2,2.1L138.6,15l5.5-5.5a10.5,10.5,0,0,1,0,13"/>
  </g>
  <g id="web_logo">
    <path class="web cls-5" d="M176,1a15,15,0,1,0,15,15A15,15,0,0,0,176,1m-4.4,8.3h3v3.1h-3Zm12.1,12.2h-3v3h-3v-3h-3.1v3h-3v-3h-3.1V15.4h-3v-3h3v3h3.1v6.1h3V15.4h3.1v6.1h3V9.3h3Z"/>
  </g>
  <g id="vfx_text">
    <path class="subtitle vfx cls-1" d="M12.3,35h1l-2.8,7H9.8L7,35H8.1l2.1,5.2Z"/>
    <path class="subtitle vfx cls-1" d="M15.1,42h-1V35h4.2v1H15.1v2.1h2.8V39H15.1Z"/>
    <path class="subtitle vfx cls-1" d="M20,35l1.9,2.6L23.8,35H25l-2.5,3.4L25,42H23.8l-1.9-2.7L20,42H18.8l2.5-3.6L18.8,35Z"/>
  </g>
  <g id="audio_text">
    <path class="subtitle audio cls-2" d="M45,39.9H42.1l-.7,1.8h-1l2.8-7.1h.7l2.8,7.1H45.6Zm-2.5-1h2.1l-1.1-2.7Z"/>
    <path class="subtitle audio cls-2" d="M47.5,39.6V34.7h1v4.9c0,.7.8,1.1,1.5,1.1s1.6-.4,1.6-1.1V34.7h1v4.9c0,1.4-1.4,2.1-2.6,2.1A2.3,2.3,0,0,1,47.5,39.6Z"/>
    <path class="subtitle audio cls-2" d="M56.4,34.7a3.3,3.3,0,0,1,3.4,3.5,3.3,3.3,0,0,1-3.4,3.5H53.9v-7Zm0,6a2.4,2.4,0,0,0,2.4-2.5,2.3,2.3,0,0,0-2.4-2.5H54.9v5Z"/>
    <path class="subtitle audio cls-2" d="M63.9,35.6H62.6v5.1h1.3v1H60.3v-1h1.3V35.6H60.3v-.9h3.6Z"/>
    <path class="subtitle audio cls-2" d="M65.4,35.6A4.1,4.1,0,0,1,68,34.5a3.6,3.6,0,0,1,2.5,1.1,4.1,4.1,0,0,1,1.1,2.6,3.6,3.6,0,0,1-1.1,2.5A3.3,3.3,0,0,1,68,41.8a3.6,3.6,0,0,1-2.6-1.1,3.6,3.6,0,0,1-1-2.5A4,4,0,0,1,65.4,35.6Zm4.4.7a2.9,2.9,0,0,0-1.8-.7,3.2,3.2,0,0,0-1.9.7,2.9,2.9,0,0,0-.7,1.9,2.9,2.9,0,0,0,.7,1.8,2.7,2.7,0,0,0,1.9.8,2.5,2.5,0,0,0,1.8-.8,2.9,2.9,0,0,0,.7-1.8A2.9,2.9,0,0,0,69.8,36.3Z"/>
  </g>
  <g id="film_text">
    <path class="subtitle film cls-3" d="M86.7,41.7h-1v-7h4.2v1H86.7v2h2.8v1H86.7Z"/>
    <path class="subtitle film cls-3" d="M94.2,35.6H92.9v5.1h1.3v1H90.6v-1h1.3V35.6H90.6v-.9h3.6Z"/>
    <path class="subtitle film cls-3" d="M96.2,40.7h3.3v1H95.2v-7h1Z"/>
    <path class="subtitle film cls-3" d="M101.4,41.7h-1v-7h.8l2.3,3.4,2.3-3.4h.8v7h-1v-5l-1.8,2.8h-.6l-1.8-2.8Z"/>
  </g>
  <g id="games_text">
    <path class="subtitle games cls-4" d="M125.4,37.2a2.2,2.2,0,0,0-2.3-1.6,2.6,2.6,0,0,0,0,5.2,2.2,2.2,0,0,0,2.2-1.5h-2.6v-1h3.8a3.9,3.9,0,0,1-.2,1.3h0a3.5,3.5,0,0,1-3.2,2.3,3.6,3.6,0,0,1,0-7.2,3.3,3.3,0,0,1,3.4,2.6Z"/>
    <path class="subtitle games cls-4" d="M131.4,39.9h-2.8l-.7,1.8h-1.1l2.8-7.1h.8l2.8,7.1h-1.1Zm-2.4-1h2.1L130,36.2Z"/>
    <path class="subtitle games cls-4" d="M134.9,41.7h-1v-7h.9l2.3,3.4,2.3-3.4h.8v7h-1v-5l-1.9,2.8h-.5l-1.9-2.8Z"/>
    <path class="subtitle games cls-4" d="M142.3,40.7h3.3v1h-4.3v-7h4.3v1h-3.3v2h3.2v1h-3.2Z"/>
    <path class="subtitle games cls-4" d="M150.4,36.5c-.1-.6-.8-.9-1.4-.9a1.9,1.9,0,0,0-1.3.5,1.4,1.4,0,0,0-.2.7c.1.7.9.8,1.6.8s2.2.4,2.5,1.5v.5a2.4,2.4,0,0,1-2.6,2.1,2.3,2.3,0,0,1-2.5-1.9v-.2h1v.2h0c.1.7.9,1,1.5,1s1.6-.4,1.6-1.1v-.3c-.2-.5-.9-.6-1.6-.6s-2.4-.4-2.5-1.9h0a2.3,2.3,0,0,1,.4-1.4,2.7,2.7,0,0,1,2.1-.9,2.3,2.3,0,0,1,2.4,1.8Z"/>
  </g>
  <g id="web_text">
    <path class="subtitle web cls-5" d="M169.6,38.3l-1.2,3.4h-.7l-2.4-7h1.1l1.7,5,1.1-3.2h.8l1.2,3.2c.5-1.7,1.1-3.4,1.6-5h1.1l-2.4,7h-.7Z"/>
    <path class="subtitle web cls-5" d="M175.7,40.7h3.2v1h-4.2v-7h4.2v1h-3.2v2h3.2v1h-3.2Z"/>
    <path class="subtitle web cls-5" d="M182.8,34.7a1.8,1.8,0,0,1,1.7,1.1,1.6,1.6,0,0,1-.5,2,1.9,1.9,0,0,1,1.1,1.8,2,2,0,0,1-2.1,2.1h-3.1v-7Zm-1.9,2.8h1.9c1.1,0,1.1-1.9,0-1.9h-1.9Zm0,3.2H183a1.1,1.1,0,0,0,1.1-1.1,1,1,0,0,0-1.1-1.1h-2.1Z"/>
  </g>
</svg>
